<svg id="Logo_endossement_IUT_blanc" data-name="Logo endossement IUT blanc" xmlns="http://www.w3.org/2000/svg" viewBox="0 0 503.452 150.442"><defs><style>.cls-1{fill:#fff;}</style></defs><title>IUT-blanc</title><g id="Logo_endossement_IUT_blanc-2" data-name="Logo endossement IUT blanc"><path id="Contour_blanc" data-name="Contour blanc" class="cls-1" d="M514.124,15.01V161.452H14.672V15.01H514.124m2-2H12.672V163.452H516.124V13.01Z" transform="translate(-12.672 -13.01)"/><g id="Logo_Gustave_Eiffel" data-name="Logo Gustave Eiffel"><g id="Symbole"><path class="cls-1" d="M94.079,109.725a20.147,20.147,0,0,0-11.6-3.661,20.371,20.371,0,0,0-14.474,5.867,20.08,20.08,0,0,0-4.648,7.2l-.414,1.095h8.9l.234-.369a11.614,11.614,0,0,1,1.614-2,12.461,12.461,0,0,1,19.03,2.021l.236.353h8.984l-.441-1.108a20.82,20.82,0,0,0-7.428-9.393" transform="translate(-12.672 -13.01)"/><path class="cls-1" d="M59.045,73.565a19.651,19.651,0,0,0-7.084-4.725l-1.077-.421V77.47l.363.237a11.674,11.674,0,0,1,1.975,1.641,12.771,12.771,0,0,1,3.454,8.93,12.641,12.641,0,0,1-5.443,10.415l-.349.239v9.135l1.091-.45a20.607,20.607,0,0,0,9.24-7.551,21.4,21.4,0,0,0-2.17-26.5" transform="translate(-12.672 -13.01)"/><path class="cls-1" d="M70.919,66.738a20.155,20.155,0,0,0,11.6,3.66,20.369,20.369,0,0,0,14.474-5.866,20.111,20.111,0,0,0,4.648-7.2l.414-1.094h-8.9l-.234.368A11.621,11.621,0,0,1,91.3,58.611,12.461,12.461,0,0,1,72.27,56.59l-.236-.353H63.05l.441,1.108a20.83,20.83,0,0,0,7.428,9.393" transform="translate(-12.672 -13.01)"/><path class="cls-1" d="M113.766,77.77l.348-.241V68.4l-1.091.448a20.621,20.621,0,0,0-9.241,7.55,21.4,21.4,0,0,0,2.173,26.5,19.62,19.62,0,0,0,7.081,4.724l1.078.421v-9.05l-.361-.238a11.556,11.556,0,0,1-1.976-1.641,12.936,12.936,0,0,1,1.989-19.344" transform="translate(-12.672 -13.01)"/><path class="cls-1" d="M90.555,88.3a8.142,8.142,0,1,1-8.141-8.275A8.209,8.209,0,0,1,90.555,88.3" transform="translate(-12.672 -13.01)"/></g><g id="Université_Gustave_Eiffel" data-name="Université Gustave Eiffel"><g id="Université"><path id="U" class="cls-1" d="M134.391,68.376A3.721,3.721,0,0,0,135.4,65.72V56.353h3.328V65.72a6.771,6.771,0,1,1-13.54,0V56.353h3.328V65.72a3.719,3.719,0,0,0,1.014,2.651,3.293,3.293,0,0,0,4.862.005" transform="translate(-12.672 -13.01)"/><path id="n" class="cls-1" d="M144.7,62.447a5.372,5.372,0,0,1,.37-.435,4.472,4.472,0,0,1,1.045-.7,3.488,3.488,0,0,1,1.7-.442,3.9,3.9,0,0,1,3.041,1.312,5.105,5.105,0,0,1,1.176,3.538v6.437h-2.993V66.062a2.267,2.267,0,0,0-.591-1.636,2,2,0,0,0-1.522-.623,2.064,2.064,0,0,0-1.622.677,2.8,2.8,0,0,0-.6,1.924v5.753h-2.992V61.091H144.7Z" transform="translate(-12.672 -13.01)"/><path id="i" class="cls-1" d="M157.519,59.162a1.79,1.79,0,0,1-1.3.463,1.6,1.6,0,0,1-1.208-.463,1.9,1.9,0,0,1,.005-2.458,1.612,1.612,0,0,1,1.2-.463,1.794,1.794,0,0,1,1.3.463,1.825,1.825,0,0,1,0,2.458m.259,13h-3V61.091h3Z" transform="translate(-12.672 -13.01)"/><polygon id="v" class="cls-1" points="150.63 59.147 146.521 48.08 149.632 48.08 152.181 55.422 154.738 48.08 157.841 48.08 153.742 59.147 150.63 59.147"/><path id="e" class="cls-1" d="M174.258,67.639a2.551,2.551,0,0,0,.943,1.525,3,3,0,0,0,1.942.623,3.66,3.66,0,0,0,1.566-.336,3.034,3.034,0,0,0,1.015-.677l.314-.341,1.549,2.028-.2.2a6.1,6.1,0,0,1-.58.47,6.89,6.89,0,0,1-.944.589,6.1,6.1,0,0,1-1.295.458,6.775,6.775,0,0,1-1.643.2,5.758,5.758,0,0,1-4.108-9.815,5.418,5.418,0,0,1,4-1.692,5.216,5.216,0,0,1,3.881,1.581,5.416,5.416,0,0,1,1.551,3.953l-.109,1.234Zm.938-3.6a3,3,0,0,0-.938,1.466h5a2.538,2.538,0,0,0-.83-1.454,2.353,2.353,0,0,0-1.61-.574,2.429,2.429,0,0,0-1.621.562" transform="translate(-12.672 -13.01)"/><path id="r" class="cls-1" d="M190.776,64.034a3.606,3.606,0,0,0-1-.121,2.4,2.4,0,0,0-1.87.761,3.142,3.142,0,0,0-.689,2.182v5.3h-2.992V61.091h2.992v1.356c.088-.1.21-.238.37-.4a4.32,4.32,0,0,1,1.045-.657,3.728,3.728,0,0,1,1.7-.407h.445Z" transform="translate(-12.672 -13.01)"/><path id="s" class="cls-1" d="M198.187,64.364a2.561,2.561,0,0,0-.212-.242,2.622,2.622,0,0,0-.613-.4,2.018,2.018,0,0,0-.954-.247,1.583,1.583,0,0,0-.975.27.772.772,0,0,0-.358.622.831.831,0,0,0,.509.716,6.3,6.3,0,0,0,1.242.513c.489.151.981.331,1.48.54a2.95,2.95,0,0,1,1.257,1.014,2.865,2.865,0,0,1,.509,1.737,3.168,3.168,0,0,1-1.152,2.491,4.685,4.685,0,0,1-3.173,1,6.334,6.334,0,0,1-1.646-.209,4.933,4.933,0,0,1-1.27-.507,8.129,8.129,0,0,1-.852-.591,3.7,3.7,0,0,1-.524-.49l-.153-.231,1.67-1.687a2.644,2.644,0,0,0,.277.336,3.708,3.708,0,0,0,.8.55,2.5,2.5,0,0,0,1.257.349,1.739,1.739,0,0,0,1.079-.283.86.86,0,0,0-.146-1.487,5.677,5.677,0,0,0-1.257-.529,13.518,13.518,0,0,1-1.48-.545,3.1,3.1,0,0,1-1.242-.993,2.726,2.726,0,0,1-.509-1.7,3.184,3.184,0,0,1,1.218-2.413,4.363,4.363,0,0,1,3-1.081,4.969,4.969,0,0,1,2.077.43,4.077,4.077,0,0,1,1.317.838l.38.429Z" transform="translate(-12.672 -13.01)"/><path id="i-2" data-name="i" class="cls-1" d="M204.893,59.162a1.79,1.79,0,0,1-1.3.463,1.6,1.6,0,0,1-1.208-.463,1.9,1.9,0,0,1,0-2.458,1.614,1.614,0,0,1,1.2-.463,1.794,1.794,0,0,1,1.3.463,1.822,1.822,0,0,1,0,2.458m.259,13h-3V61.091h3Z" transform="translate(-12.672 -13.01)"/><path id="t" class="cls-1" d="M209.235,57.829H211.9v3.494h2.211v2.71H211.9v4.4a1.179,1.179,0,0,0,.373.881,1.306,1.306,0,0,0,.948.365,2.629,2.629,0,0,0,.571-.062,2.028,2.028,0,0,0,.417-.127l.131-.044v2.6a5.464,5.464,0,0,1-2.008.331q-3.436,0-3.436-3.837V64.033h-1.887v-2.71h1a1.118,1.118,0,0,0,.867-.407,1.547,1.547,0,0,0,.358-1.059Z" transform="translate(-12.672 -13.01)"/><path id="é" class="cls-1" d="M218.2,67.639a2.55,2.55,0,0,0,.942,1.526,3,3,0,0,0,1.942.622,3.66,3.66,0,0,0,1.566-.336,3.049,3.049,0,0,0,1.015-.677l.314-.343,1.549,2.028-.2.2a6.128,6.128,0,0,1-.58.468,6.978,6.978,0,0,1-.943.591,6.073,6.073,0,0,1-1.3.456,6.732,6.732,0,0,1-1.643.2,5.759,5.759,0,0,1-4.108-9.814,5.422,5.422,0,0,1,4-1.692,5.2,5.2,0,0,1,3.881,1.582,5.411,5.411,0,0,1,1.551,3.95l-.107,1.236Zm.937-3.6A2.982,2.982,0,0,0,218.2,65.5h5a2.524,2.524,0,0,0-.83-1.455,2.354,2.354,0,0,0-1.61-.573,2.428,2.428,0,0,0-1.621.561m2.283-7.792h3.112l-2.44,3.384h-2.449Z" transform="translate(-12.672 -13.01)"/></g><g id="Gustave"><path id="G" class="cls-1" d="M139.617,87.5v5.864c-.057.074-.149.181-.276.325a8.412,8.412,0,0,1-.833.739,9.9,9.9,0,0,1-1.368.926,8.971,8.971,0,0,1-1.887.733,8.728,8.728,0,0,1-2.4.331,8.2,8.2,0,0,1-6-2.42,8.153,8.153,0,0,1,0-11.645,8.624,8.624,0,0,1,8.332-2.087,6.889,6.889,0,0,1,1.816.787,12.4,12.4,0,0,1,1.257.925,5.114,5.114,0,0,1,.786.783l.251.331-2.116,2.15c-.042-.06-.1-.141-.178-.248a4.947,4.947,0,0,0-.509-.547,5.3,5.3,0,0,0-.862-.677,5.567,5.567,0,0,0-1.226-.539,5.123,5.123,0,0,0-5.192,1.239,5.414,5.414,0,0,0,0,7.407,4.9,4.9,0,0,0,3.641,1.487,5.512,5.512,0,0,0,1.9-.314,3.757,3.757,0,0,0,1.205-.633l.336-.287V89.981h-2.777V87.5Z" transform="translate(-12.672 -13.01)"/><path id="u-2" data-name="u" class="cls-1" d="M149.7,94.951a4.571,4.571,0,0,1-.37.38,4.3,4.3,0,0,1-1.045.6,4.031,4.031,0,0,1-1.7.368,3.955,3.955,0,0,1-3.041-1.272,4.8,4.8,0,0,1-1.176-3.389V85.01h2.994v6.327a2.093,2.093,0,0,0,.6,1.532,2.044,2.044,0,0,0,1.512.606A2.072,2.072,0,0,0,149.1,92.8a2.793,2.793,0,0,0,.6-1.92V85.01h2.992V96.076H149.7Z" transform="translate(-12.672 -13.01)"/><path id="s-2" data-name="s" class="cls-1" d="M161.432,88.283a2.421,2.421,0,0,0-.212-.242,2.6,2.6,0,0,0-.613-.4,2.015,2.015,0,0,0-.953-.247,1.591,1.591,0,0,0-.976.269.775.775,0,0,0-.358.623.832.832,0,0,0,.509.716,6.365,6.365,0,0,0,1.242.513c.489.151.981.331,1.48.54a2.953,2.953,0,0,1,1.258,1.014,2.86,2.86,0,0,1,.509,1.736,3.17,3.17,0,0,1-1.153,2.492,4.683,4.683,0,0,1-3.173,1,6.345,6.345,0,0,1-1.646-.209,4.9,4.9,0,0,1-1.27-.508,8.4,8.4,0,0,1-.852-.59,3.844,3.844,0,0,1-.526-.491l-.151-.23,1.67-1.687a2.894,2.894,0,0,0,.277.336,3.708,3.708,0,0,0,.8.55,2.5,2.5,0,0,0,1.257.349,1.744,1.744,0,0,0,1.08-.283.86.86,0,0,0-.146-1.487,5.659,5.659,0,0,0-1.258-.529,13.518,13.518,0,0,1-1.48-.545,3.114,3.114,0,0,1-1.242-.993,2.732,2.732,0,0,1-.509-1.7,3.191,3.191,0,0,1,1.218-2.415,4.373,4.373,0,0,1,3-1.079,4.984,4.984,0,0,1,2.077.429,4.093,4.093,0,0,1,1.317.839l.38.429Z" transform="translate(-12.672 -13.01)"/><path id="t-2" data-name="t" class="cls-1" d="M166.62,81.747h2.667v3.5H171.5v2.711h-2.212v4.4a1.186,1.186,0,0,0,.374.883,1.309,1.309,0,0,0,.948.363,2.622,2.622,0,0,0,.571-.061,2.092,2.092,0,0,0,.417-.127l.131-.045v2.6a5.444,5.444,0,0,1-2.008.331q-3.436,0-3.436-3.835V87.953H164.4V85.242h1a1.116,1.116,0,0,0,.868-.408,1.545,1.545,0,0,0,.358-1.059Z" transform="translate(-12.672 -13.01)"/><path id="a" class="cls-1" d="M179.581,94.951a5.184,5.184,0,0,1-.363.381,4.373,4.373,0,0,1-1.013.6,4.083,4.083,0,0,1-4.273-.551,2.907,2.907,0,0,1-1.019-2.234,3.157,3.157,0,0,1,.857-2.259,4.181,4.181,0,0,1,2.364-1.179l3.447-.628a1.439,1.439,0,0,0-.5-1.135A2.018,2.018,0,0,0,177.7,87.5a3.177,3.177,0,0,0-1.346.28,2.5,2.5,0,0,0-.857.58l-.248.265-1.66-1.687c.045-.06.1-.139.18-.238a4.752,4.752,0,0,1,.509-.511,5.379,5.379,0,0,1,.863-.646,5.69,5.69,0,0,1,1.225-.518,5.206,5.206,0,0,1,1.551-.237,4.649,4.649,0,0,1,3.36,1.25,4.188,4.188,0,0,1,1.3,3.148v6.889h-2.994Zm-.6-1.791a2.6,2.6,0,0,0,.6-1.824V91l-2.439.451q-1.227.2-1.225,1.246,0,1.122,1.441,1.123a2.092,2.092,0,0,0,1.622-.655" transform="translate(-12.672 -13.01)"/><polygon id="v-2" data-name="v" class="cls-1" points="175.318 83.065 171.21 71.999 174.32 71.999 176.869 79.34 179.427 71.999 182.527 71.999 178.431 83.065 175.318 83.065"/><path id="e-2" data-name="e" class="cls-1" d="M198.945,91.557a2.544,2.544,0,0,0,.944,1.526,2.991,2.991,0,0,0,1.941.624,3.658,3.658,0,0,0,1.566-.338,3.019,3.019,0,0,0,1.015-.677l.313-.341,1.551,2.028-.2.2a5.532,5.532,0,0,1-.58.47,6.679,6.679,0,0,1-.944.589,5.906,5.906,0,0,1-1.294.458,6.737,6.737,0,0,1-1.643.2,5.759,5.759,0,0,1-4.109-9.814,5.429,5.429,0,0,1,4-1.692,5.21,5.21,0,0,1,3.881,1.582,5.41,5.41,0,0,1,1.551,3.952l-.108,1.234Zm.939-3.6a3,3,0,0,0-.939,1.466h5a2.541,2.541,0,0,0-.83-1.455,2.358,2.358,0,0,0-1.611-.573,2.421,2.421,0,0,0-1.62.562" transform="translate(-12.672 -13.01)"/></g><g id="Eiffel"><polygon id="E-3" data-name="E" class="cls-1" points="112.623 91.179 112.623 106.983 124.29 106.983 124.29 103.942 115.962 103.942 115.962 100.438 122.284 100.438 122.284 97.395 115.962 97.395 115.962 94.232 124.062 94.232 124.062 91.179 112.623 91.179"/><path id="i-3" data-name="i" class="cls-1" d="M142,107a1.792,1.792,0,0,1-1.3.464,1.6,1.6,0,0,1-1.208-.464,1.894,1.894,0,0,1,0-2.457,1.609,1.609,0,0,1,1.2-.463,1.792,1.792,0,0,1,1.3.463A1.823,1.823,0,0,1,142,107m.259,12.994h-3V108.927h3Z" transform="translate(-12.672 -13.01)"/><path id="f" class="cls-1" d="M151.11,111.981h-2.44V120h-3v-8.014h-1.551V109.27h1.551V107.8q0-3.832,3.446-3.835a5.651,5.651,0,0,1,.988.088,6,6,0,0,1,.77.177l.238.076V106.9A2.459,2.459,0,0,0,150,106.68a1.337,1.337,0,0,0-.954.358,1.159,1.159,0,0,0-.38.876v1.356h2.44Z" transform="translate(-12.672 -13.01)"/><path id="f-2" data-name="f" class="cls-1" d="M158.965,111.981h-2.44V120h-3v-8.014h-1.552V109.27h1.552V107.8q0-3.832,3.446-3.835a5.651,5.651,0,0,1,.988.088,5.974,5.974,0,0,1,.769.177l.239.076V106.9a2.461,2.461,0,0,0-1.107-.221,1.332,1.332,0,0,0-.952.358,1.164,1.164,0,0,0-.381.876v1.356h2.44Z" transform="translate(-12.672 -13.01)"/><path id="e-4" data-name="e" class="cls-1" d="M163.155,115.476A2.548,2.548,0,0,0,164.1,117a3,3,0,0,0,1.942.623,3.66,3.66,0,0,0,1.566-.336,3.034,3.034,0,0,0,1.015-.677l.314-.341,1.549,2.028-.2.2a5.738,5.738,0,0,1-.579.47,7.063,7.063,0,0,1-.945.589,5.936,5.936,0,0,1-1.295.458,6.825,6.825,0,0,1-1.643.2,5.76,5.76,0,0,1-4.108-9.816,5.426,5.426,0,0,1,4-1.692,5.213,5.213,0,0,1,3.881,1.582,5.412,5.412,0,0,1,1.551,3.952l-.109,1.234Zm.938-3.605a3,3,0,0,0-.938,1.467h5a2.538,2.538,0,0,0-.83-1.455,2.357,2.357,0,0,0-1.61-.573,2.428,2.428,0,0,0-1.621.561" transform="translate(-12.672 -13.01)"/><rect id="l" class="cls-1" x="160.561" y="91.179" width="3.004" height="15.804"/></g></g></g><path class="cls-1" d="M434.562,127.242a1.406,1.406,0,0,0-1.531,1.264h3.008A1.334,1.334,0,0,0,434.562,127.242Z" transform="translate(-12.672 -13.01)"/><path class="cls-1" d="M426.561,127.242a1.407,1.407,0,0,0-1.533,1.264h3.011A1.336,1.336,0,0,0,426.561,127.242Z" transform="translate(-12.672 -13.01)"/><path class="cls-1" d="M388.01,127.256c-1.05,0-1.684.728-1.684,1.924s.62,1.883,1.67,1.883,1.67-.687,1.67-1.883C389.666,127.957,388.989,127.256,388.01,127.256Z" transform="translate(-12.672 -13.01)"/><path class="cls-1" d="M369.738,127.242a1.408,1.408,0,0,0-1.533,1.264h3.011A1.336,1.336,0,0,0,369.738,127.242Z" transform="translate(-12.672 -13.01)"/><path class="cls-1" d="M347.012,127.256c-1.049,0-1.684.728-1.684,1.924s.621,1.883,1.671,1.883,1.67-.687,1.67-1.883C348.669,127.957,347.992,127.256,347.012,127.256Z" transform="translate(-12.672 -13.01)"/><path class="cls-1" d="M410.115,127.256c-1.051,0-1.685.728-1.685,1.924s.621,1.883,1.671,1.883,1.669-.687,1.669-1.883C411.77,127.957,411.094,127.256,410.115,127.256Z" transform="translate(-12.672 -13.01)"/><path class="cls-1" d="M264.4,13.911V162.474H515.082V13.911ZM388.5,79.332V43.722h17.173v37.93c0,2.127-.018,4.224-.126,6.276a34.324,34.324,0,0,1-19.233,5.805c-.286,0-.57-.014-.856-.021C388.327,90.916,388.5,85.287,388.5,79.332ZM386.2,103.944a33.538,33.538,0,0,0,16.982-4.595,22.427,22.427,0,0,1-2.092,3.923,35.676,35.676,0,0,1-14.89,3.2c-12.6,0-23.944-6.623-29.762-16.347,4.542,11.441,15.935,19.542,29.873,19.542A34.665,34.665,0,0,0,396.934,108a21.442,21.442,0,0,1-8.279,4.135c-.775.049-1.557.085-2.346.085-12.864,0-24.443-6.9-30.128-16.956a31.556,31.556,0,0,0,15.131,16.675,21.986,21.986,0,0,1-10.948-7.4,21.471,21.471,0,0,1-4.471-9.774l-.125-.637a46.7,46.7,0,0,1-.645-6.552l-.08-2.072c-.02-1.28.006-2.57.006-3.865v-.072l0-1.779-.013-5.914c2.99,13.9,15.463,24.327,31.277,24.327a32.731,32.731,0,0,0,18.8-5.752,33.062,33.062,0,0,1-.658,3.339,35.739,35.739,0,0,1-18.144,4.947c-12.778,0-24.4-6.81-30.124-16.756C360.622,95.642,372.088,103.944,386.2,103.944ZM372.069,43.722v35.61c0,4.607.253,9.016,1.691,12.077a31.821,31.821,0,0,1-18.721-18.825l-.062-28.862Zm-24.248,0q.49.606.949,1.237v4.782a30.361,30.361,0,0,0-4.274-6.019Zm-5.9,0a32.92,32.92,0,0,1,6.846,6.932v4.725a30.826,30.826,0,0,0-11.379-11.657Zm-10.276.406A34.372,34.372,0,0,1,348.77,56.4v4.858A30.947,30.947,0,0,0,331.648,46.74Zm0,5.754a34.617,34.617,0,0,1,17.122,12.2v4.927A30.938,30.938,0,0,0,331.648,52.49Zm0,5.734A34.567,34.567,0,0,1,348.77,67.841v5.032a30.806,30.806,0,0,0-17.122-14.64Zm0,7.06A32.625,32.625,0,0,1,348.77,75.94V111.5H331.648Zm8.855,69.8-.717-5.925a12.612,12.612,0,0,1-.138-1.621,3.567,3.567,0,0,1,.013-.372,12.067,12.067,0,0,1-.358,1.637l-2.086,6.281h-1.186l-2.057-6.281c-.041-.125-.166-.674-.373-1.637v.289a13,13,0,0,1-.125,1.7l-.717,5.925h-2l1.5-9.828h2.209l1.9,5.788a8.6,8.6,0,0,1,.262,1.333,7.393,7.393,0,0,1,.249-1.348l1.933-5.773H341l1.5,9.828Zm9.919,0h-1.863l.028-.948a2.436,2.436,0,0,1-2.278,1.21c-1.713,0-2.928-1.362-2.928-3.548,0-2.212,1.119-3.518,3-3.518a2.423,2.423,0,0,1,2.222,1.306V125.9h1.822Zm6.361-4.659a2.206,2.206,0,0,0-.9-.179c-1.229,0-1.643.618-1.643,1.938v2.9h-1.918V125.9h1.891l-.042,1.69c.387-1.279,1.105-1.911,2.181-1.911a5.266,5.266,0,0,1,.718.083Zm7.962.811v3.848h-1.918v-3.257c0-1.251-.112-1.993-1.257-1.993a1.552,1.552,0,0,0-1.284.631,2.259,2.259,0,0,0-.331,1.459v3.16h-1.919V125.9h1.878v1.03a2.98,2.98,0,0,1,2.443-1.251,2.207,2.207,0,0,1,2.112,1.044,3.449,3.449,0,0,1,.276,1.705Zm8.375,1.03h-4.969a1.487,1.487,0,0,0,1.615,1.417,1.692,1.692,0,0,0,1.546-.813l1.546.771a3.408,3.408,0,0,1-3.134,1.705,3.262,3.262,0,0,1-3.479-3.519,3.39,3.39,0,0,1,3.493-3.547,3.2,3.2,0,0,1,3.41,3.491C373.148,129.331,373.134,129.5,373.12,129.661Zm5.618.385h-3.769v-1.69h3.769Zm4.014,2.433h-1.918V122.074h1.918Zm8.668,0h-1.864l.028-.948a2.436,2.436,0,0,1-2.278,1.21c-1.713,0-2.928-1.362-2.928-3.548,0-2.212,1.119-3.518,3-3.518a2.422,2.422,0,0,1,2.222,1.306V125.9h1.823Zm5.723-2.433h-3.768v-1.69h3.768Zm3.86,2.433-3.645-9.828h2.333l1.92,6.131c.056.177.207.8.414,1.855a11.719,11.719,0,0,1,.4-1.925l1.944-6.061h2.306L403,132.479Zm12.522,0h-1.864l.026-.948a2.43,2.43,0,0,1-2.276,1.21c-1.714,0-2.928-1.362-2.928-3.548,0-2.212,1.119-3.518,3-3.518a2.42,2.42,0,0,1,2.221,1.306V125.9h1.824Zm3.888,0H415.5V122.074h1.918Zm4.029,0h-1.92V122.074h1.92Zm8.5-2.818h-4.97a1.488,1.488,0,0,0,1.615,1.417,1.694,1.694,0,0,0,1.547-.813l1.546.771a3.411,3.411,0,0,1-3.134,1.705,3.264,3.264,0,0,1-3.481-3.519,3.391,3.391,0,0,1,3.5-3.547,3.2,3.2,0,0,1,3.409,3.491C429.97,129.331,429.957,129.5,429.943,129.661Zm-4.529-4.742,1.326-2.474h1.739l-2.113,2.474Zm12.531,4.742h-4.97a1.487,1.487,0,0,0,1.616,1.417,1.694,1.694,0,0,0,1.547-.813l1.544.771a3.4,3.4,0,0,1-3.133,1.705,3.261,3.261,0,0,1-3.478-3.519,3.388,3.388,0,0,1,3.491-3.547,3.2,3.2,0,0,1,3.411,3.491C437.973,129.331,437.959,129.5,437.945,129.661Zm.034-18.16h-17.2V99.828a33.1,33.1,0,0,1,17.2-5.208Zm0-19.517a33.306,33.306,0,0,0-17.2,4.844V95.35a32.976,32.976,0,0,1,17.2-6.176Zm0-5.513a32.945,32.945,0,0,0-17.2,5.793V91.076a31.587,31.587,0,0,1,17.2-7.363Zm0-5.357a33.959,33.959,0,0,0-17.2,6.693v-.825a31.258,31.258,0,0,1,17.2-8.589Zm0-5.368a33.456,33.456,0,0,0-17.2,7.808v-.418a30.855,30.855,0,0,1,17.2-10Zm11.786-14.675H437.979v9.416a33.181,33.181,0,0,0-17.2,8.955V61.071H408.99V43.722h40.775Z" transform="translate(-12.672 -13.01)"/></g></svg>