<?xml version="1.0" encoding="utf-8"?>
<!-- Generator: Adobe Illustrator 28.1.0, SVG Export Plug-In . SVG Version: 6.00 Build 0)  -->
<svg version="1.1"
	 id="Calque_1" xmlns:svg="http://www.w3.org/2000/svg" xmlns:cc="http://creativecommons.org/ns#" xmlns:dc="http://purl.org/dc/elements/1.1/" xmlns:inkscape="http://www.inkscape.org/namespaces/inkscape" xmlns:sodipodi="http://sodipodi.sourceforge.net/DTD/sodipodi-0.dtd" xmlns:rdf="http://www.w3.org/1999/02/22-rdf-syntax-ns#"
	 xmlns="http://www.w3.org/2000/svg" xmlns:xlink="http://www.w3.org/1999/xlink" x="0px" y="0px" viewBox="0 0 500 103.2"
	 style="enable-background:new 0 0 500 103.2;" xml:space="preserve">
<style type="text/css">
	.st0{fill:#2D2D80;}
</style>
<sodipodi:namedview  bordercolor="#666666" borderopacity="1" gridtolerance="10" guidetolerance="10" id="namedview904" inkscape:current-layer="Calque_1" inkscape:cx="351.51268" inkscape:cy="362.0101" inkscape:document-rotation="0" inkscape:pageopacity="0" inkscape:pageshadow="2" inkscape:window-height="784" inkscape:window-maximized="0" inkscape:window-width="1440" inkscape:window-x="0" inkscape:window-y="23" inkscape:zoom="0.49497475" objecttolerance="10" pagecolor="#ffffff" showgrid="false">
	</sodipodi:namedview>
<g id="g1014" transform="scale(1.026062)">
	<path id="path835" inkscape:connector-curvature="0" class="st0" d="M68.3,83.4c-5.4-3.7-11.8-5.7-18.3-5.7
		c-8.7,0-16.9,3.2-22.9,9.1c-3.2,3.2-5.7,6.9-7.3,11.2l-0.7,1.7h14.1l0.4-0.6c0.7-1.1,1.6-2.2,2.6-3.1c3.6-3.5,8.5-5.5,13.9-5.5
		c6.5,0,12.5,3.2,16.2,8.6l0.4,0.5h14.2L80,98C77.6,92.1,73.5,87.1,68.3,83.4"/>
	<path id="path837" inkscape:connector-curvature="0" class="st0" d="M12.9,27.2C9.7,24,6,21.5,1.7,19.9L0,19.2v14.1l0.6,0.4
		c1.1,0.7,2.2,1.6,3.1,2.6c3.5,3.6,5.5,8.5,5.5,13.9c0,6.5-3.2,12.5-8.6,16.2L0,66.7v14.2l1.7-0.7c5.9-2.4,11-6.5,14.6-11.7
		C20,63,22,56.7,22,50.1C22,41.4,18.8,33.2,12.9,27.2"/>
	<path id="path839" inkscape:connector-curvature="0" class="st0" d="M31.7,16.6c5.4,3.7,11.8,5.7,18.3,5.7c8.7,0,16.9-3.2,22.9-9.1
		C76.1,10,78.6,6.3,80.2,2l0.7-1.7H66.8l-0.4,0.6C65.7,2,64.8,3,63.9,4C60.3,7.5,55.3,9.4,50,9.4c-6.5,0-12.5-3.2-16.2-8.6l-0.4-0.6
		H19.2L19.9,2C22.3,7.9,26.4,13,31.7,16.6"/>
	<path id="path841" inkscape:connector-curvature="0" class="st0" d="M99.4,33.8l0.5-0.4V19.2l-1.7,0.7c-5.9,2.4-11,6.5-14.6,11.7
		C79.9,37,77.9,43.4,77.9,50c0,8.7,3.2,16.9,9.1,22.9c3.2,3.2,6.9,5.7,11.2,7.3l1.7,0.7V66.8l-0.6-0.4c-1.1-0.7-2.2-1.6-3.1-2.6
		c-3.5-3.6-5.5-8.5-5.5-13.9C90.8,43.5,94,37.4,99.4,33.8"/>
	<path id="path843" inkscape:connector-curvature="0" class="st0" d="M62.7,50.1c0,7.1-5.8,12.9-12.9,12.9S37,57.2,37,50.1
		s5.8-12.9,12.9-12.9C56.9,37.3,62.7,43,62.7,50.1"/>
</g>
<g id="g1044" transform="scale(1.026062)">
	<path id="path845" inkscape:connector-curvature="0" class="st0" d="M140.1,29.9c-1.7-1.8-2.6-4-2.6-6.7v-23h-8v23
		c0,4.7,1.6,8.7,4.8,11.8c3.2,3.2,7.2,4.8,12,4.8s8.9-1.6,12-4.8c3.2-3.2,4.8-7.1,4.8-11.8v-23h-8v23c0,2.6-0.9,4.9-2.6,6.7
		c-1.7,1.8-3.8,2.7-6.2,2.7S141.8,31.7,140.1,29.9"/>
	<path id="path847" inkscape:connector-curvature="0" class="st0" d="M188.4,19.9c1,1,1.5,2.4,1.5,4.2V39h7.2V23.2
		c0-3.6-1-6.5-2.9-8.6s-4.5-3.2-7.5-3.2c-1.5,0-2.9,0.4-4.2,1.1c-1.3,0.7-2.2,1.3-2.6,1.7c-0.4,0.4-0.7,0.8-0.9,1.1l-0.3,0.4V12
		h-7.2v27h7.2V25c0-2.1,0.5-3.7,1.6-4.9c1-1.1,2.4-1.7,4.2-1.7C186,18.3,187.4,18.9,188.4,19.9"/>
	<path id="path849" inkscape:connector-curvature="0" class="st0" d="M208.4,8c1.3,0,2.4-0.4,3.1-1.1c0.8-0.7,1.1-1.7,1.1-2.9
		s-0.4-2.2-1.1-2.9c-0.8-0.7-1.8-1.1-3.1-1.1c-1.2,0-2.2,0.4-2.9,1.1s-1.1,1.7-1.1,2.9s0.4,2.2,1.1,2.9C206.2,7.7,207.1,8,208.4,8"
		/>
	<rect id="rect851" x="204.9" y="12" class="st0" width="7.2" height="27"/>
	<polygon id="polygon853" class="st0" points="226.9,39 234.4,39 244.6,12 237.2,12 230.6,30.4 230.5,30 224.1,12 216.7,12 	"/>
	<path id="path855" inkscape:connector-curvature="0" class="st0" d="M265.6,39c1.3-0.3,2.4-0.7,3.2-1.1c0.8-0.4,1.6-0.9,2.4-1.4
		c0.7-0.5,1.2-0.9,1.4-1.1L273,35l-3.7-4.7l-0.7,0.7c-0.5,0.6-1.3,1.1-2.6,1.7c-1.2,0.6-2.6,0.8-4,0.8c-2,0-3.7-0.5-5-1.6
		c-1.3-1-2.1-2.3-2.4-3.9v-0.2h19.8l0.3-2.9c0-3.8-1.3-7.1-3.8-9.6c-2.5-2.6-5.8-3.9-9.6-3.9c-3.8,0-7.2,1.4-9.9,4.1
		s-4.1,6.1-4.1,9.9s1.4,7.2,4.2,9.9s6.2,4.1,10.1,4.1C262.9,39.5,264.3,39.3,265.6,39 M254.7,22.6c0.5-1.5,1.3-2.8,2.4-3.7
		c1.1-0.9,2.5-1.4,4.2-1.4c1.6,0,3,0.5,4.2,1.5c1.1,1,1.8,2.2,2.1,3.7v0.2h-13L254.7,22.6z"/>
	<path id="path857" inkscape:connector-curvature="0" class="st0" d="M296.7,18.8v-7.1h-0.9c-1.5,0-2.9,0.3-4.2,1
		c-1.3,0.7-2.2,1.2-2.6,1.6c-0.4,0.4-0.7,0.7-0.9,1l-0.3,0.3V12h-7.2v27h7.2V26c0-2.4,0.6-4.2,1.8-5.5c1.2-1.3,2.8-1.9,4.8-1.9
		C295.4,18.6,296.2,18.7,296.7,18.8"/>
	<path id="path859" inkscape:connector-curvature="0" class="st0" d="M319.4,26.9c-0.8-1.1-1.9-1.9-3.1-2.4s-2.5-1-3.7-1.3
		c-1.2-0.4-2.3-0.8-3.2-1.3c-0.9-0.5-1.4-1.1-1.4-1.9c0-0.6,0.3-1.2,1-1.7c0.6-0.5,1.5-0.7,2.5-0.7c0.8,0,1.7,0.2,2.5,0.6
		s1.3,0.8,1.6,1c0.2,0.2,0.3,0.3,0.4,0.5l3.7-4.2l-0.9-0.9c-0.6-0.6-1.7-1.3-3.2-2c-1.6-0.7-3.3-1-5.1-1c-2.9,0-5.4,0.9-7.4,2.6
		s-3,3.7-3,5.8c0,1.6,0.4,3,1.2,4.1c0.8,1.1,1.9,1.9,3.1,2.4s2.5,1,3.7,1.3c1.3,0.4,2.3,0.8,3.2,1.3c0.9,0.5,1.4,1.2,1.4,2
		s-0.3,1.5-1,1.9c-0.6,0.5-1.6,0.7-2.8,0.7c-1.1,0-2.2-0.3-3.2-0.9c-1-0.6-1.7-1-2-1.4c-0.2-0.3-0.4-0.5-0.6-0.7l-4,3.9l0.3,0.5
		c0.3,0.3,0.7,0.7,1.3,1.2c0.6,0.5,1.3,1,2.1,1.4c0.8,0.5,1.9,0.9,3.1,1.2c1.3,0.3,2.7,0.5,4.1,0.5c3.3,0,6-0.8,7.8-2.4
		c1.9-1.6,2.8-3.6,2.8-6C320.6,29.4,320.2,28,319.4,26.9"/>
	<path id="path861" inkscape:connector-curvature="0" class="st0" d="M330.2,8c1.3,0,2.4-0.4,3.1-1.1c0.8-0.7,1.1-1.7,1.1-2.9
		s-0.4-2.2-1.1-2.9c-0.8-0.7-1.8-1.1-3.1-1.1c-1.2,0-2.2,0.4-2.9,1.1s-1.1,1.7-1.1,2.9s0.4,2.2,1.1,2.9C328,7.7,329,8,330.2,8"/>
	<rect id="rect863" x="326.8" y="12" class="st0" width="7.2" height="27"/>
	<path id="path865" inkscape:connector-curvature="0" class="st0" d="M355,33.2c-1,0-1.8-0.3-2.5-0.9c-0.7-0.6-1-1.4-1-2.3V19h5.5
		v-6.4h-5.5V3.9h-6.4v4.8c0,1.1-0.3,2-0.9,2.7s-1.4,1.1-2.3,1.1h-2.3v6.4h4.7v11.3c0,6.3,2.8,9.3,8.5,9.3h0.2c1.7,0,3.3-0.3,4.7-0.8
		v-6.1h-0.1c-0.2,0.1-0.6,0.2-1.1,0.3C356,33.1,355.5,33.2,355,33.2"/>
	<path id="path867" inkscape:connector-curvature="0" class="st0" d="M374.5,11.4c-3.8,0-7.2,1.4-9.9,4.1c-2.7,2.7-4.1,6.1-4.1,9.9
		s1.4,7.2,4.2,9.9c2.8,2.7,6.2,4.1,10.1,4.1c1.4,0,2.8-0.2,4.1-0.5c1.3-0.3,2.4-0.7,3.2-1.1c0.8-0.4,1.6-0.9,2.3-1.4
		c0.7-0.5,1.2-0.9,1.4-1.1l0.4-0.4l-3.7-4.7l-0.7,0.7c-0.5,0.6-1.4,1.1-2.6,1.7c-1.2,0.6-2.6,0.8-4,0.8c-2,0-3.7-0.5-5-1.6
		c-1.3-1-2.1-2.3-2.4-3.9v-0.2h19.8l0.3-2.9c0-3.8-1.3-7.1-3.8-9.6S378.3,11.4,374.5,11.4 M367.9,22.9l0.1-0.2
		c0.5-1.5,1.3-2.8,2.4-3.7c1.1-0.9,2.5-1.4,4.2-1.4c1.6,0,3,0.5,4.2,1.5c1.1,1,1.8,2.2,2.1,3.7V23h-13L367.9,22.9z"/>
	<polygon id="polygon869" class="st0" points="372,8 377.8,8 383.6,0 376.3,0 	"/>
	<path id="path871" inkscape:connector-curvature="0" class="st0" d="M157.4,90.2L157.4,90.2l-0.9,0.8c-0.6,0.5-1.6,1.1-3.1,1.6
		s-3.1,0.8-4.8,0.8c-3.7,0-6.8-1.3-9.3-3.7c-2.5-2.5-3.7-5.6-3.7-9.3c0-3.7,1.3-6.8,3.7-9.3c2.5-2.5,5.6-3.7,9.3-3.7
		c1.3,0,2.7,0.2,3.9,0.6c1.3,0.4,2.3,0.9,3.1,1.4s1.5,1.1,2.2,1.7s1.1,1.1,1.3,1.4l0.1,0.1c0.1,0.1,0.2,0.3,0.3,0.4l5.1-5.1
		l-0.5-0.7c-0.4-0.5-1-1.1-1.9-1.9s-2-1.5-3.1-2.3c-1.2-0.7-2.7-1.4-4.5-1.9s-3.8-0.8-5.8-0.8c-5.9,0-10.9,2-14.9,5.9
		s-6.1,8.7-6.1,14.2s2,10.3,6.1,14.3c4,3.9,9.1,5.9,14.9,5.9c2,0,4.1-0.3,6-0.8s3.5-1.1,4.7-1.8c1.2-0.7,2.3-1.4,3.4-2.3
		c1.1-0.9,1.8-1.5,2.1-1.8s0.5-0.6,0.6-0.7V78.9h-15v5.8h7v5.5L157.4,90.2z"/>
	<path id="path873" inkscape:connector-curvature="0" class="st0" d="M181.9,92.1c-1-1-1.6-2.3-1.6-3.9V72.7h-7.2v16.2
		c0,3.4,1,6.2,2.9,8.3c1.9,2,4.4,3.1,7.5,3.1c1.5,0,2.9-0.3,4.2-0.9s2.2-1.1,2.6-1.4c0.4-0.4,0.7-0.7,0.9-0.9l0.3-0.3v3.1h7.2v-27
		h-7.2v14.3c0,2.1-0.5,3.7-1.6,4.8c-1,1.1-2.4,1.7-4.2,1.7C184.3,93.6,182.9,93.1,181.9,92.1"/>
	<path id="path875" inkscape:connector-curvature="0" class="st0" d="M221.7,85.2c-1.2-0.5-2.5-1-3.7-1.3c-1.2-0.4-2.3-0.8-3.1-1.3
		c-0.9-0.5-1.4-1.2-1.4-1.9c0-0.6,0.3-1.2,1-1.7c0.6-0.5,1.5-0.7,2.5-0.7c0.8,0,1.7,0.2,2.5,0.6s1.3,0.8,1.6,1
		c0.2,0.2,0.3,0.3,0.4,0.5l3.7-4.2l-0.9-0.9c-0.6-0.6-1.7-1.3-3.3-2s-3.3-1-5.1-1c-2.9,0-5.4,0.9-7.4,2.6s-3,3.7-3,5.8
		c0,1.6,0.4,3,1.2,4.1s1.9,1.9,3.1,2.4c1.2,0.5,2.5,1,3.7,1.3c1.3,0.4,2.3,0.8,3.2,1.3s1.4,1.2,1.4,2s-0.3,1.5-1,1.9
		c-0.6,0.5-1.6,0.7-2.8,0.7c-1.1,0-2.2-0.3-3.2-0.9s-1.7-1-2-1.4c-0.2-0.3-0.4-0.5-0.6-0.7l-4,3.9l0.3,0.5c0.3,0.3,0.7,0.7,1.3,1.2
		s1.3,1,2.1,1.4c0.8,0.5,1.9,0.9,3.1,1.2c1.3,0.3,2.7,0.5,4.1,0.5c3.3,0,6-0.8,7.9-2.4s2.8-3.6,2.8-6c0-1.7-0.4-3.1-1.2-4.2
		C223.9,86.5,222.9,85.7,221.7,85.2"/>
	<path id="path877" inkscape:connector-curvature="0" class="st0" d="M242.6,93c-0.7-0.6-1-1.4-1-2.3v-11h5.6v-6.4h-5.6v-8.6h-6.4
		v4.8c0,1.1-0.3,2-0.9,2.7c-0.6,0.7-1.4,1.1-2.3,1.1h-2.3v6.4h4.7V91c0,6.3,2.8,9.3,8.5,9.3h0.2c1.7,0,3.3-0.3,4.7-0.8v-6.1h-0.1
		c-0.2,0.1-0.6,0.2-1.1,0.3c-0.5,0.1-1,0.2-1.5,0.2C244.1,93.9,243.2,93.6,242.6,93"/>
	<path id="path879" inkscape:connector-curvature="0" class="st0" d="M264,72.2c-1.3,0-2.6,0.2-3.8,0.6c-1.2,0.4-2.3,0.8-3,1.3
		c-0.7,0.4-1.5,1-2.1,1.6c-0.7,0.6-1.1,1-1.3,1.2V77c-0.1,0.2-0.2,0.3-0.3,0.4l3.9,3.9l0.5-0.5c0.4-0.5,1.2-1,2.2-1.5
		s2.2-0.7,3.4-0.7c1.5,0,2.7,0.4,3.6,1.1c0.9,0.8,1.3,1.7,1.3,2.9v0.1h-0.1l-8.7,1.6c-2.5,0.4-4.4,1.4-5.8,2.9
		c-1.4,1.4-2.1,3.3-2.1,5.5c0,2.1,0.8,3.9,2.5,5.4s3.9,2.2,6.5,2.2c1.4,0,2.7-0.3,4-0.9s2.1-1.1,2.5-1.4c0.4-0.4,0.7-0.7,0.9-0.9
		l0.3-0.3v3.1h7.2v-17c0-3.1-1.1-5.6-3.2-7.6C270.2,73.2,267.4,72.2,264,72.2 M268.4,88.2c0,2-0.5,3.5-1.6,4.6
		c-1,1.1-2.4,1.7-4.2,1.7c-2.5,0-3.8-1-3.8-2.9c0-1.8,1.1-2.9,3.2-3.2l6.3-1.2v1H268.4z"/>
	<polygon id="polygon881" class="st0" points="307.7,72.7 300.3,72.7 293.8,91.2 293.6,90.8 287.3,72.7 279.8,72.7 290,99.7 
		297.6,99.7 	"/>
	<path id="path883" inkscape:connector-curvature="0" class="st0" d="M324.4,72.2c-3.8,0-7.2,1.4-9.9,4.1c-2.7,2.7-4.1,6.1-4.1,9.9
		s1.4,7.2,4.2,9.9c2.8,2.7,6.2,4.1,10.1,4.1c1.4,0,2.8-0.2,4.1-0.5c1.3-0.3,2.4-0.7,3.2-1.1c0.8-0.4,1.6-0.9,2.3-1.4
		c0.8-0.6,1.2-0.9,1.4-1.1l0.4-0.4l-3.7-4.7l-0.7,0.7c-0.5,0.6-1.3,1.1-2.6,1.7c-1.2,0.6-2.6,0.8-4,0.8c-2,0-3.7-0.5-5-1.6
		c-1.3-1-2.1-2.3-2.4-3.9v-0.2h19.8l0.3-2.9c0-3.8-1.3-7.1-3.8-9.6S328.2,72.2,324.4,72.2 M317.7,83.6l0.1-0.2
		c0.5-1.5,1.3-2.8,2.4-3.7c1.1-0.9,2.5-1.4,4.2-1.4c1.6,0,3,0.5,4.2,1.5c1.1,1,1.8,2.2,2.1,3.7v0.2L317.7,83.6L317.7,83.6z"/>
	<polygon id="polygon885" class="st0" points="385.2,68.2 385.2,61 356.8,61 356.8,99.7 385.7,99.7 385.7,92.6 364.8,92.6 
		364.8,83.6 380.7,83.6 380.7,76.4 364.8,76.4 364.8,68.2 	"/>
	<rect id="rect887" x="392.4" y="72.7" class="st0" width="7.2" height="27"/>
	<path id="path889" inkscape:connector-curvature="0" class="st0" d="M395.9,60.8c-1.2,0-2.2,0.4-2.9,1.1c-0.7,0.7-1.1,1.7-1.1,2.9
		s0.4,2.2,1.1,2.9c0.7,0.7,1.7,1.1,2.9,1.1c1.3,0,2.4-0.4,3.1-1.1c0.8-0.7,1.1-1.7,1.1-2.9c0-1.2-0.4-2.2-1.1-2.9
		C398.3,61.1,397.2,60.8,395.9,60.8"/>
	<path id="path891" inkscape:connector-curvature="0" class="st0" d="M399,67.7c-0.8,0.7-1.8,1.1-3.1,1.1c-1.2,0-2.2-0.4-2.9-1.1
		c-0.7-0.7-1.1-1.7-1.1-2.9c0-1.2,0.4-2.2,1.1-2.9s1.7-1.1,2.9-1.1c1.3,0,2.4,0.4,3.1,1.1c0.8,0.7,1.1,1.7,1.1,2.9
		C400.1,66,399.8,67,399,67.7"/>
	<path id="path893" inkscape:connector-curvature="0" class="st0" d="M420,60.7c-0.8-0.1-1.7-0.2-2.4-0.2c-5.7,0-8.5,3-8.5,9.3v3.8
		h-3.9V80h3.9v19.8h7.2V79.9h6.1v-6.4h-6.1V70c0-0.9,0.3-1.7,1-2.3c0.7-0.6,1.5-0.9,2.5-0.9s1.9,0.2,2.6,0.5v-6l-0.5-0.2
		C421.5,61,420.9,60.9,420,60.7"/>
	<path id="path895" inkscape:connector-curvature="0" class="st0" d="M440.4,60.7c-0.8-0.1-1.7-0.2-2.4-0.2c-5.7,0-8.5,3-8.5,9.3
		v3.8h-3.9V80h3.9v19.8h7.2V79.9h6.1v-6.4h-6.1V70c0-0.9,0.3-1.7,1-2.3c0.7-0.6,1.5-0.9,2.5-0.9s1.9,0.2,2.6,0.5v-6l-0.5-0.2
		C441.8,61,441.2,60.9,440.4,60.7"/>
	<path id="path897" inkscape:connector-curvature="0" class="st0" d="M460.5,72.2c-3.8,0-7.2,1.4-9.9,4.1c-2.7,2.7-4.1,6.1-4.1,9.9
		s1.4,7.2,4.2,9.9c2.8,2.7,6.2,4.1,10.1,4.1c1.4,0,2.8-0.2,4.1-0.5c1.3-0.3,2.4-0.7,3.2-1.1c0.8-0.4,1.6-0.9,2.3-1.4
		c0.8-0.6,1.2-0.9,1.4-1.1l0.4-0.4l-3.7-4.7l-0.7,0.7c-0.5,0.6-1.3,1.1-2.6,1.7c-1.2,0.6-2.6,0.8-4,0.8c-2,0-3.7-0.5-5-1.6
		c-1.3-1-2.1-2.3-2.4-3.9v-0.2h19.8l0.3-2.9c0-3.8-1.3-7.1-3.8-9.6C467.5,73.5,464.3,72.2,460.5,72.2 M453.8,83.6l0.1-0.2
		c0.5-1.5,1.3-2.8,2.4-3.7c1.1-0.9,2.5-1.4,4.2-1.4c1.6,0,3,0.5,4.2,1.5c1.1,1,1.8,2.2,2.1,3.7v0.2L453.8,83.6L453.8,83.6z"/>
	<rect id="rect899" x="480.1" y="61" class="st0" width="7.2" height="38.7"/>
</g>
</svg>
